# xmcd
#
# Track frame offsets: 
#        150
#        9312
#        21427
#        33732
#        46702
#        59842
#        71539
#        83107
#        92542
#        103402
#        114927
#        127945
#
# Disc length: 1849 seconds
#
# Revision: 0
# Processed by: cddbd v1.5.1PL2 Copyright (c) Steve Scherf et al.
# Submitted via: ExactAudioCopy v0.95b3
#
DISCID=9907370c
DTITLE=John Lee Hooker - Urban Blues
DYEAR=1900
DGENRE=Blues
TTITLE0=Cry Before I Go
TTITLE1=Boom Boom
TTITLE2=Backbiters And Syndicaters
TTITLE3=Mr. Lucky
TTITLE4=My Own Blues
TTITLE5=I Canät Stand To Leave You
TTITLE6=Think Twice Before You Go
TTITLE7=I'm Standing In Line
TTITLE8=Hot Spring Water (Part 1)
TTITLE9=Hot Spring Water (Part 2)
TTITLE10=The Motor City Is Burning
TTITLE11=Want Ad Blues
EXTD=
EXTT0=
EXTT1=
EXTT2=
EXTT3=
EXTT4=
EXTT5=
EXTT6=
EXTT7=
EXTT8=
EXTT9=
EXTT10=
EXTT11=
PLAYORDER=
